<svg xmlns="http://www.w3.org/2000/svg" viewBox="0 0 800 600" fill="none">
  <rect width="800" height="600" fill="#ffffff"/>
  <g font-family="ui-monospace, SFMono-Regular, Menlo, monospace" fill="#4a5b72">
    <text x="48" y="58" font-size="9" letter-spacing="2.5">FIG. 02</text>
    <text x="48" y="74" font-size="11" font-weight="600" letter-spacing="1.5" fill="#07316d">HYBRID CANNULA</text>
    <text x="752" y="58" font-size="9" letter-spacing="2.5" text-anchor="end">HC-STD-18-10</text>
    <text x="752" y="74" font-size="9" letter-spacing="2.5" text-anchor="end">SCALE 1:1 · 18G × 100 mm</text>
  </g>
  <rect x="32" y="32" width="736" height="536" stroke="#d9e8ea" stroke-width="1" fill="none"/>
  <g font-family="ui-monospace, SFMono-Regular, Menlo, monospace" font-size="9" letter-spacing="2.5" fill="#4a5b72">
    <text x="48" y="555">DISTRIBUIDOR · LIMA · PERÚ</text>
    <text x="752" y="555" text-anchor="end">480 kHz · RFA</text>
  </g>
  <g transform="translate(400 80)">
    <rect x="-44" y="0" width="88" height="60" stroke="#07316d" stroke-width="2.4" fill="none"/>
    <line x1="-32" y1="22" x2="32" y2="22" stroke="#07316d" stroke-width="1" stroke-opacity="0.3"/>
    <line x1="-32" y1="38" x2="32" y2="38" stroke="#07316d" stroke-width="1" stroke-opacity="0.3"/>
    <line x1="-32" y1="48" x2="32" y2="48" stroke="#07316d" stroke-width="1" stroke-opacity="0.3"/>
    <line x1="0" y1="-12" x2="0" y2="0" stroke="#07316d" stroke-width="2.4"/>
  </g>
  <g transform="translate(400 80)">
    <line x1="-26" y1="60" x2="26" y2="60" stroke="#07316d" stroke-width="2.4"/>
    <path d="M-12 60 L-12 380 L0 420 L12 380 L12 60" stroke="#07316d" stroke-width="2.4" fill="none" stroke-linejoin="miter"/>
    <line x1="-7" y1="80" x2="-7" y2="380" stroke="#07316d" stroke-width="0.8" stroke-opacity="0.4"/>
    <line x1="7" y1="80" x2="7" y2="380" stroke="#07316d" stroke-width="0.8" stroke-opacity="0.4"/>
    <line x1="-12" y1="350" x2="-20" y2="346" stroke="#3da4ab" stroke-width="1.4"/>
    <line x1="12" y1="350" x2="20" y2="346" stroke="#3da4ab" stroke-width="1.4"/>
    <line x1="-12" y1="360" x2="-20" y2="356" stroke="#3da4ab" stroke-width="1.4"/>
    <line x1="12" y1="360" x2="20" y2="356" stroke="#3da4ab" stroke-width="1.4"/>
    <line x1="-12" y1="370" x2="-20" y2="366" stroke="#3da4ab" stroke-width="1.4"/>
    <line x1="12" y1="370" x2="20" y2="366" stroke="#3da4ab" stroke-width="1.4"/>
    <line x1="-12" y1="380" x2="-20" y2="376" stroke="#3da4ab" stroke-width="1.4"/>
    <line x1="12" y1="380" x2="20" y2="376" stroke="#3da4ab" stroke-width="1.4"/>
    <line x1="-12" y1="390" x2="-20" y2="386" stroke="#3da4ab" stroke-width="1.4"/>
    <line x1="12" y1="390" x2="20" y2="386" stroke="#3da4ab" stroke-width="1.4"/>
    <line x1="-12" y1="400" x2="-20" y2="396" stroke="#3da4ab" stroke-width="1.4"/>
    <line x1="12" y1="400" x2="20" y2="396" stroke="#3da4ab" stroke-width="1.4"/>
    <line x1="-12" y1="410" x2="-20" y2="406" stroke="#3da4ab" stroke-width="1.4"/>
    <line x1="12" y1="410" x2="20" y2="406" stroke="#3da4ab" stroke-width="1.4"/>
  </g>
  <line x1="240" y1="320" x2="378" y2="320" stroke="#4a5b72" stroke-width="0.8" stroke-opacity="0.4"/>
  <circle cx="378" cy="320" r="2" fill="#4a5b72"/>
  <text x="234" y="324" font-size="9" letter-spacing="1.5" text-anchor="end" fill="#4a5b72" font-family="ui-monospace, SFMono-Regular, Menlo, monospace">HUB</text>
  <line x1="430" y1="320" x2="560" y2="320" stroke="#4a5b72" stroke-width="0.8" stroke-opacity="0.4"/>
  <circle cx="430" cy="320" r="2" fill="#4a5b72"/>
  <text x="566" y="324" font-size="9" letter-spacing="1.5" text-anchor="start" fill="#4a5b72" font-family="ui-monospace, SFMono-Regular, Menlo, monospace">CANNULA · 18G</text>
  <line x1="430" y1="380" x2="560" y2="380" stroke="#4a5b72" stroke-width="0.8" stroke-opacity="0.4"/>
  <circle cx="430" cy="380" r="2" fill="#3da4ab"/>
  <text x="566" y="384" font-size="9" letter-spacing="1.5" text-anchor="#3da4ab" fill="#4a5b72" font-family="ui-monospace, SFMono-Regular, Menlo, monospace">TINE MARKS</text>
  <line x1="240" y1="80" x2="378" y2="80" stroke="#4a5b72" stroke-width="0.8" stroke-opacity="0.4"/>
  <circle cx="378" cy="80" r="2" fill="#4a5b72"/>
  <text x="234" y="84" font-size="9" letter-spacing="1.5" text-anchor="end" fill="#4a5b72" font-family="ui-monospace, SFMono-Regular, Menlo, monospace">CONNECTOR</text>
</svg>
