<svg xmlns="http://www.w3.org/2000/svg" viewBox="0 0 800 600" fill="none">
  <rect width="800" height="600" fill="#ffffff"/>
  <g font-family="ui-monospace, SFMono-Regular, Menlo, monospace" fill="#4a5b72">
    <text x="48" y="58" font-size="9" letter-spacing="2.5">FIG. 06</text>
    <text x="48" y="74" font-size="11" font-weight="600" letter-spacing="1.5" fill="#07316d">WATER COOLED PROBE</text>
    <text x="752" y="58" font-size="9" letter-spacing="2.5" text-anchor="end">WCP-22-150</text>
    <text x="752" y="74" font-size="9" letter-spacing="2.5" text-anchor="end">SCALE 1:1 · 22G × 150 mm</text>
  </g>
  <rect x="32" y="32" width="736" height="536" stroke="#d9e8ea" stroke-width="1" fill="none"/>
  <g font-family="ui-monospace, SFMono-Regular, Menlo, monospace" font-size="9" letter-spacing="2.5" fill="#4a5b72">
    <text x="48" y="555">DISTRIBUIDOR · LIMA · PERÚ</text>
    <text x="752" y="555" text-anchor="end">480 kHz · RFA</text>
  </g>
  <g transform="translate(400 100)">
    <rect x="-50" y="0" width="100" height="50" stroke="#07316d" stroke-width="2.4" fill="none"/>
    <line x1="-40" y1="16" x2="40" y2="16" stroke="#07316d" stroke-width="1" stroke-opacity="0.3"/>
    <line x1="-40" y1="34" x2="40" y2="34" stroke="#07316d" stroke-width="1" stroke-opacity="0.3"/>
  </g>
  <g transform="translate(400 100)">
    <path d="M-10 50 L-10 350 L0 390 L10 350 L10 50" stroke="#07316d" stroke-width="2.4" fill="none" stroke-linejoin="miter"/>
    <!-- Cooling zone ellipse -->
    <ellipse cx="0" cy="220" rx="38" ry="80" stroke="#3da4ab" stroke-width="1.5" fill="#3da4ab" fill-opacity="0.1"/>
    <line x1="-6" y1="60" x2="-6" y2="350" stroke="#07316d" stroke-width="0.8" stroke-opacity="0.4"/>
    <line x1="6" y1="60" x2="6" y2="350" stroke="#07316d" stroke-width="0.8" stroke-opacity="0.4"/>
    <circle cx="0" cy="220" r="4" fill="#3da4ab"/>
  </g>
  <line x1="220" y1="125" x2="348" y2="125" stroke="#4a5b72" stroke-width="0.8" stroke-opacity="0.4"/>
  <circle cx="348" cy="125" r="2" fill="#4a5b72"/>
  <text x="214" y="129" font-size="9" letter-spacing="1.5" text-anchor="end" fill="#4a5b72" font-family="ui-monospace, SFMono-Regular, Menlo, monospace">CONNECTOR</text>
  <line x1="450" y1="125" x2="580" y2="125" stroke="#4a5b72" stroke-width="0.8" stroke-opacity="0.4"/>
  <circle cx="450" cy="125" r="2" fill="#4a5b72"/>
  <text x="586" y="129" font-size="9" letter-spacing="1.5" text-anchor="start" fill="#4a5b72" font-family="ui-monospace, SFMono-Regular, Menlo, monospace">WATER COOLED PROBE</text>
  <line x1="450" y1="320" x2="580" y2="320" stroke="#4a5b72" stroke-width="0.8" stroke-opacity="0.4"/>
  <circle cx="450" cy="320" r="2" fill="#3da4ab"/>
  <text x="586" y="324" font-size="9" letter-spacing="1.5" text-anchor="#3da4ab" fill="#4a5b72" font-family="ui-monospace, SFMono-Regular, Menlo, monospace">COOLING ZONE</text>
</svg>
